<svg width="26" height="26" viewBox="0 0 26 26" fill="none" xmlns="http://www.w3.org/2000/svg">
<path d="M9.93544 14.7743C9.93544 14.6826 9.98233 14.6001 10.0573 14.5084L13.9281 9.74927C14.2186 9.38248 14.706 9.63007 14.5373 10.0794L13.2626 13.4264H15.6526C15.8307 13.4264 15.99 13.5639 15.99 13.729C15.99 13.8207 15.9431 13.9216 15.8587 14.004L11.9974 18.754C11.7068 19.1208 11.2101 18.8732 11.3788 18.4331L12.6628 15.0769H10.2634C10.0854 15.0769 9.93544 14.9486 9.93544 14.7743ZM4.89312 21.4316H21.1073C23.0755 21.4316 24.0502 20.4871 24.0502 18.5981V9.73093C24.0502 7.84195 23.0755 6.89746 21.1073 6.89746H19.8139V5.66871C19.8139 4.9718 19.4015 4.54999 18.6799 4.54999H15.915C15.2027 4.54999 14.7903 4.9718 14.7903 5.66871V6.89746H11.2194V5.66871C11.2194 4.9718 10.8071 4.54999 10.0854 4.54999H7.32055C6.59888 4.54999 6.19587 4.9718 6.19587 5.66871V6.89746H4.89312C2.93429 6.89746 1.9502 7.84195 1.9502 9.73093V18.5981C1.9502 20.4871 2.93429 21.4316 4.89312 21.4316Z" fill="#6679FF"/>
</svg>
