<svg width="24" height="20" viewBox="0 0 24 20" fill="none" xmlns="http://www.w3.org/2000/svg">
<path d="M4.74455 15.0845L5.01051 16.1483C5.34739 17.5314 6.08322 18.2406 7.54599 18.2406H17.0939C18.5656 18.2406 19.2925 17.5491 19.6383 16.1483L19.9043 15.0845H4.74455ZM4.452 13.87H20.2057L21.8723 7.04369L21.1454 6.62702L17.0585 9.60576C16.757 9.81857 16.5532 9.73876 16.3847 9.4994L12.5372 3.68374L12.1116 3.66601L8.22862 9.52595C8.07792 9.75646 7.90061 9.82742 7.59918 9.61461L3.59206 6.68908L2.74099 6.91071L4.452 13.87ZM3.06901 8.81672C4.23923 8.81672 5.17895 7.86817 5.17895 6.68908C5.17895 5.53659 4.23923 4.57913 3.06901 4.57913C1.89879 4.57913 0.950195 5.52772 0.950195 6.68908C0.950195 7.86817 1.90765 8.81672 3.06901 8.81672ZM12.3244 5.12878C13.4858 5.12878 14.4343 4.1802 14.4343 3.00997C14.4343 1.85748 13.4858 0.900024 12.3244 0.900024C11.1453 0.900024 10.2056 1.84862 10.2056 3.00997C10.2056 4.1802 11.1542 5.12878 12.3244 5.12878ZM21.5709 8.81672C22.7323 8.81672 23.6897 7.86817 23.6897 6.68908C23.6897 5.52772 22.7412 4.57913 21.5709 4.57913C20.4096 4.57913 19.461 5.53659 19.461 6.68908C19.461 7.86817 20.4096 8.81672 21.5709 8.81672Z" fill="#6679FF"/>
</svg>
