<svg width="21" height="20" viewBox="0 0 21 20" fill="none" xmlns="http://www.w3.org/2000/svg">
<path d="M18.6025 0H1.55957C0.743164 0 0.0830078 0.644531 0.0830078 1.44141V18.5547C0.0830078 19.3516 0.743164 20 1.55957 20H18.6025C19.4189 20 20.083 19.3516 20.083 18.5586V1.44141C20.083 0.644531 19.4189 0 18.6025 0ZM6.0166 17.043H3.04785V7.49609H6.0166V17.043ZM4.53223 6.19531C3.5791 6.19531 2.80957 5.42578 2.80957 4.47656C2.80957 3.52734 3.5791 2.75781 4.53223 2.75781C5.48145 2.75781 6.25098 3.52734 6.25098 4.47656C6.25098 5.42188 5.48145 6.19531 4.53223 6.19531ZM17.126 17.043H14.1611V12.4023C14.1611 11.2969 14.1416 9.87109 12.6182 9.87109C11.0752 9.87109 10.8408 11.0781 10.8408 12.3242V17.043H7.87988V7.49609H10.7236V8.80078H10.7627C11.1572 8.05078 12.126 7.25781 13.5674 7.25781C16.5713 7.25781 17.126 9.23438 17.126 11.8047V17.043Z" fill="#6679FF"/>
</svg>
