<svg width="26" height="26" viewBox="0 0 26 26" fill="none" xmlns="http://www.w3.org/2000/svg">
<path d="M13.2361 24.982C16.9312 24.982 19.9124 22.0008 19.9124 18.3162C19.9124 14.6211 16.9312 11.6399 13.2361 11.6399C9.5515 11.6399 6.57025 14.6211 6.57025 18.3162C6.57025 22.0008 9.5515 24.982 13.2361 24.982ZM11.336 21.7488C10.9371 22.0427 10.5173 21.7383 10.6747 21.2765L11.4305 19.0195L9.49901 17.6444C9.13161 17.3714 9.24707 16.8571 9.75094 16.8571L12.1233 16.878L12.8477 14.6106C12.9946 14.1488 13.4985 14.1488 13.6455 14.6106L14.3698 16.878L16.7421 16.8571C17.246 16.8571 17.351 17.3819 16.9941 17.6339L15.0626 19.0195L15.8184 21.2765C15.9759 21.7383 15.556 22.0427 15.1571 21.7488L13.2466 20.3526L11.336 21.7488ZM6.84318 13.3195C7.87192 12.0177 9.28906 11.031 10.9161 10.5481L6.16085 2.00331L3.40005 6.21275C3.2111 6.48568 3.2006 6.7901 3.36856 7.06303L6.84318 13.3195ZM10.8847 6.96855H15.598L18.7996 1.29999H7.68297L10.8847 6.96855ZM15.5664 10.5481C17.2041 11.031 18.6107 12.0177 19.6394 13.3195L23.1245 7.06303C23.282 6.7901 23.2715 6.48568 23.0826 6.21275L20.3217 2.00331L15.5664 10.5481Z" fill="#6679FF"/>
</svg>
