<svg width="26" height="26" viewBox="0 0 26 26" fill="none" xmlns="http://www.w3.org/2000/svg">
<path d="M12.7642 23.829C12.9376 23.829 13.2085 23.7639 13.4794 23.623C19.6453 20.3937 21.6285 18.7791 21.6285 14.8888V6.71803C21.6285 5.60187 21.1516 5.24426 20.2414 4.86498C18.9735 4.34483 14.9207 2.87106 13.6636 2.4376C13.371 2.34007 13.0676 2.28589 12.7642 2.28589C12.4608 2.28589 12.1573 2.35091 11.8756 2.4376C10.6077 2.84939 6.55485 4.35566 5.28698 4.86498C4.38755 5.23342 3.8999 5.60187 3.8999 6.71803V14.8888C3.8999 18.7791 5.99135 20.2095 12.049 23.623C12.3307 23.7748 12.5908 23.829 12.7642 23.829ZM7.87691 13.415C7.87691 13.285 7.94193 13.1224 8.06113 12.9816L14.1838 5.29844C14.6497 4.71327 15.43 5.10339 15.1483 5.82943L13.1326 11.2477H16.9146C17.2071 11.2477 17.4239 11.4536 17.4239 11.7462C17.4239 11.8762 17.3589 12.0388 17.2397 12.1796L11.117 19.8628C10.6511 20.4479 9.88167 20.0578 10.1526 19.3426L12.179 13.9135H8.38622C8.10448 13.9135 7.87691 13.7076 7.87691 13.415Z" fill="#6679FF"/>
</svg>
