<svg width="26" height="26" viewBox="0 0 26 26" fill="none" xmlns="http://www.w3.org/2000/svg">
<path d="M10.2124 18.9758H19.4569C20.6116 18.9758 21.0234 18.6502 21.0234 18.0133C21.0234 16.146 18.648 13.5695 14.831 13.5695C11.0213 13.5695 8.64586 16.146 8.64586 18.0133C8.64586 18.6502 9.05768 18.9758 10.2124 18.9758ZM14.8383 12.274C16.4196 12.274 17.7801 10.8844 17.7801 9.07509C17.7801 7.28745 16.4122 5.96301 14.8383 5.96301C13.2644 5.96301 11.8965 7.31641 11.8965 9.08956C11.8965 10.8844 13.2571 12.274 14.8383 12.274ZM2.26949 18.9758H7.85894C7.09404 17.883 8.02807 15.6829 9.60927 14.4815C8.79291 13.9459 7.7412 13.5478 6.36594 13.5478C3.04907 13.5478 0.975098 15.9579 0.975098 17.9626C0.975098 18.614 1.34282 18.9758 2.26949 18.9758ZM6.3733 12.4405C7.7412 12.4405 8.93267 11.2246 8.93267 9.65408C8.93267 8.09804 7.73386 6.9473 6.3733 6.9473C5.00536 6.9473 3.79922 8.12699 3.80658 9.66856C3.80658 11.2246 4.99801 12.4405 6.3733 12.4405ZM20.2806 12.0569C20.5307 12.2234 20.8763 12.1727 21.0749 11.8904C21.6412 11.1594 21.9796 10.0811 21.9796 8.97377C21.9796 7.86645 21.6412 6.79531 21.0749 6.0571C20.8763 5.77484 20.5307 5.72418 20.2806 5.89064C19.9865 6.09329 19.935 6.45516 20.1703 6.75189C20.5969 7.33088 20.8396 8.13423 20.8396 8.97377C20.8396 9.81331 20.5895 10.6094 20.1703 11.1956C19.9424 11.4996 19.9865 11.847 20.2806 12.0569ZM23.0092 13.9459C23.2813 14.1268 23.6196 14.0617 23.8181 13.7867C24.7595 12.5129 25.3111 10.7614 25.3111 8.97377C25.3111 7.18613 24.7669 5.42021 23.8181 4.1609C23.6196 3.88588 23.2813 3.82075 23.0092 4.00168C22.7371 4.18261 22.6929 4.52277 22.9062 4.81951C23.7079 5.93407 24.1712 7.4322 24.1712 8.97377C24.1712 10.5153 23.6931 12.0062 22.9062 13.128C22.7003 13.4248 22.7371 13.7649 23.0092 13.9459Z" fill="#6679FF"/>
</svg>
