<svg width="26" height="26" viewBox="0 0 26 26" fill="none" xmlns="http://www.w3.org/2000/svg">
<path d="M12.1875 5.78168C12.1875 5.39693 11.9859 5.04916 11.7529 4.74305C11.5136 4.42878 11.375 4.056 11.375 3.65625C11.375 2.53442 12.4663 1.625 13.8125 1.625C15.1587 1.625 16.25 2.53442 16.25 3.65625C16.25 4.056 16.1114 4.42878 15.8721 4.74305C15.6391 5.04916 15.4375 5.39693 15.4375 5.78168C15.4375 6.14173 15.7383 6.42915 16.0977 6.4077C18.1676 6.28419 20.204 6.03772 22.1999 5.67557C22.4195 5.63571 22.6459 5.68798 22.8258 5.82011C23.0057 5.95224 23.1234 6.15258 23.1511 6.37408C23.3938 8.31268 23.5314 10.2837 23.558 12.2812C23.5633 12.678 23.2411 12.9999 22.8442 13C22.4594 13 22.1117 12.7984 21.8055 12.5654C21.4913 12.3261 21.1185 12.1875 20.7187 12.1875C19.5969 12.1875 18.6875 13.2788 18.6875 14.625C18.6875 15.9712 19.5969 17.0625 20.7187 17.0625C21.1185 17.0625 21.4913 16.9239 21.8055 16.6846C22.1117 16.4516 22.4594 16.25 22.8442 16.25C23.1805 16.25 23.4475 16.5335 23.4232 16.8689C23.2947 18.644 23.0783 20.395 22.7785 22.1175C22.7197 22.4553 22.4552 22.7198 22.1174 22.7786C20.1467 23.1216 18.1387 23.3553 16.0999 23.4733C15.7392 23.4942 15.4375 23.2056 15.4375 22.8442C15.4375 22.4594 15.6391 22.1117 15.8721 21.8055C16.1114 21.4913 16.25 21.1185 16.25 20.7188C16.25 19.5969 15.1587 18.6875 13.8125 18.6875C12.4663 18.6875 11.375 19.5969 11.375 20.7188C11.375 21.1185 11.5136 21.4913 11.7529 21.8055C11.9859 22.1117 12.1875 22.4594 12.1875 22.8442C12.1875 23.2359 11.8668 23.5522 11.4752 23.5411C9.75328 23.4923 8.05175 23.361 6.37448 23.151C6.15297 23.1233 5.95263 23.0056 5.8205 22.8257C5.68838 22.6457 5.6361 22.4194 5.67596 22.1997C5.99325 20.4512 6.22174 18.6716 6.35656 16.8657C6.38146 16.5322 6.1161 16.25 5.78168 16.25C5.39693 16.25 5.04916 16.4516 4.74305 16.6846C4.42878 16.9239 4.056 17.0625 3.65625 17.0625C2.53442 17.0625 1.625 15.9712 1.625 14.625C1.625 13.2788 2.53442 12.1875 3.65625 12.1875C4.056 12.1875 4.42878 12.3261 4.74305 12.5654C5.04916 12.7984 5.39693 13 5.78168 13C6.17858 13 6.50084 12.6782 6.49538 12.2814C6.47112 10.5175 6.35767 8.77528 6.15939 7.05931C6.13091 6.81287 6.21658 6.56693 6.39199 6.39152C6.56741 6.2161 6.81335 6.13044 7.05978 6.15891C8.51394 6.32694 9.98682 6.43405 11.4758 6.47759C11.867 6.48903 12.1875 6.17302 12.1875 5.78168Z" fill="#6679FF"/>
</svg>
