<svg width="25" height="24" viewBox="0 0 25 24" fill="none" xmlns="http://www.w3.org/2000/svg">
<path d="M15.0829 10.1286L15.2851 10.176L15.0829 10.1286ZM14.124 17.5338L14.3981 17.1157L14.124 17.5338C14.255 17.6197 14.3813 17.7097 14.5131 17.8037L14.8034 17.3965L14.5131 17.8037C14.531 17.8164 14.5491 17.8293 14.5674 17.8424C15.02 18.1661 15.6052 18.5846 16.3449 18.5165C17.0239 18.454 17.4335 17.8272 17.6107 16.8803C18.0079 14.7568 18.7935 10.1313 18.9765 8.20835C18.9977 7.98524 18.9724 7.72613 18.9515 7.60423C18.9302 7.47965 18.8703 7.19229 18.6029 6.97534C18.4516 6.85254 18.281 6.79326 18.1549 6.76312C18.0255 6.73223 17.9031 6.72259 17.8141 6.72416C17.4985 6.72972 17.1447 6.81877 16.4946 7.05468C15.8358 7.29373 14.819 7.70497 13.1545 8.39727C11.9836 8.88428 9.64951 9.8897 6.15596 11.4118C5.85728 11.531 5.59822 11.6607 5.40106 11.8071C5.21526 11.9451 4.99872 12.1617 4.95956 12.4741C4.93322 12.6842 4.98129 12.884 5.09692 13.0541C5.20287 13.2099 5.34737 13.3143 5.47487 13.3868C5.70863 13.5198 6.02251 13.6184 6.30435 13.7069C6.31629 13.7106 6.32817 13.7144 6.33999 13.7181C6.42502 13.7448 6.51054 13.7717 6.59787 13.8001C6.91107 13.9019 7.28185 14.0136 7.63259 14.1015C7.97173 14.1866 8.33206 14.26 8.60699 14.2659C8.759 14.2692 9.07156 14.227 9.4018 14.1746C9.75563 14.1185 10.1929 14.0397 10.6324 13.9504C10.6933 13.938 10.7542 13.9254 10.8152 13.9126C10.7308 14.038 10.6556 14.1867 10.6219 14.3577C10.5068 14.941 10.9115 15.3827 11.445 15.7343C11.9315 16.0549 12.3208 16.32 12.712 16.5864L12.7128 16.5869C13.1398 16.8778 13.569 17.17 14.124 17.5338ZM24.4165 12C24.4165 18.3513 19.2678 23.5 12.9165 23.5C6.56523 23.5 1.4165 18.3513 1.4165 12C1.4165 5.64873 6.56523 0.5 12.9165 0.5C19.2678 0.5 24.4165 5.64873 24.4165 12Z" fill="#6679FF" stroke="black"/>
</svg>
