<svg width="32" height="32" viewBox="0 0 32 32" fill="none" xmlns="http://www.w3.org/2000/svg">
<path d="M15.9993 29.3327C23.3631 29.3327 29.3327 23.3631 29.3327 15.9993C29.3327 8.63555 23.3631 2.66602 15.9993 2.66602C8.63555 2.66602 2.66602 8.63555 2.66602 15.9993C2.66602 23.3631 8.63555 29.3327 15.9993 29.3327Z" fill="#1877F2"/>
<path d="M21.1884 19.8541L21.7797 16.0002H18.0818V13.4993C18.0818 12.4449 18.5983 11.417 20.2545 11.417H21.9357V8.13587C20.9486 7.97613 19.9511 7.88894 18.9513 7.875C15.9055 7.875 13.9148 9.7208 13.9148 13.0628V16.0002H10.5293V19.8541H13.9148V29.1712C15.2954 29.3877 16.7012 29.3877 18.0818 29.1712V19.8541H21.1884Z" fill="white"/>
</svg>
