<svg xmlns="http://www.w3.org/2000/svg" width="113" height="32" viewBox="0 0 113 32" fill="none">
<path d="M36.7393 22.7575V8.44269H39.3709V22.766L36.7393 22.7575Z" fill="#404041"/>
<path d="M44.335 17.1589L46.7289 16.8024C47.2829 16.7238 47.4611 16.4458 47.4611 16.1105C47.4611 15.4186 46.9263 14.8371 45.8185 14.8371C44.6725 14.8371 44.04 15.5693 43.9594 16.4204L41.6249 15.9259C41.784 14.4021 43.189 12.7212 45.7994 12.7212C48.8852 12.7212 50.0333 14.4615 50.0333 16.4204V21.2082C50.0364 21.7247 50.0761 22.2403 50.1522 22.7511H47.737C47.6699 22.3657 47.6373 21.9751 47.6394 21.5839C47.1449 22.3542 46.2154 23.027 44.7701 23.027C42.6945 23.027 41.4275 21.6221 41.4275 20.1004C41.4275 18.3665 42.7136 17.3966 44.335 17.1589ZM47.4611 18.8207V18.3856L45.2646 18.7209C44.5918 18.8207 44.0591 19.1963 44.0591 19.9476C44.0591 20.5227 44.4836 21.0745 45.3325 21.0745C46.4382 21.0745 47.4611 20.5397 47.4611 18.8207Z" fill="#404041"/>
<path d="M61.4278 20.996C61.4278 21.6496 61.466 22.3606 61.5063 22.7575H58.9935C58.9281 22.3847 58.8947 22.0069 58.8938 21.6284C58.4587 22.4009 57.4697 22.9952 56.1645 22.9952C53.395 22.9952 51.417 20.8177 51.417 17.872C51.417 15.0218 53.327 12.7785 56.086 12.7785C57.7669 12.7785 58.5585 13.4704 58.845 13.9861V8.44269H61.4384L61.4278 20.996ZM56.4808 20.6416C57.8263 20.6416 58.8747 19.6122 58.8747 17.8508C58.8747 16.0893 57.8263 15.1406 56.4808 15.1406C55.1352 15.1406 54.0783 16.1296 54.0783 17.872C54.0783 19.6144 55.097 20.6416 56.4808 20.6416Z" fill="#404041"/>
<path d="M65.0866 8.19864C65.4065 8.19866 65.7192 8.29329 65.9854 8.47063C66.2516 8.64796 66.4595 8.90007 66.5827 9.19524C66.706 9.4904 66.7392 9.81543 66.6782 10.1294C66.6171 10.4434 66.4646 10.7323 66.2397 10.9598C66.0149 11.1873 65.7278 11.3433 65.4145 11.408C65.1012 11.4727 64.7758 11.4433 64.4793 11.3235C64.1827 11.2037 63.9281 10.9988 63.7477 10.7347C63.5673 10.4706 63.469 10.159 63.4652 9.83916C63.4627 9.62463 63.5027 9.41173 63.5831 9.2128C63.6634 9.01387 63.7825 8.83287 63.9333 8.68028C64.0841 8.52768 64.2637 8.40654 64.4617 8.32386C64.6597 8.24119 64.8721 8.19862 65.0866 8.19864ZM63.7814 22.7575V13.0247H66.4131V22.7575H63.7814Z" fill="#404041"/>
<path d="M68.7222 26.516V13.0247H71.2689V14.211C71.704 13.4598 72.7927 12.8061 74.255 12.8061C77.1052 12.8061 78.7457 14.9836 78.7457 17.872C78.7457 20.8177 76.9057 22.9952 74.1573 22.9952C72.8118 22.9952 71.8228 22.4603 71.3474 21.8067V26.516H68.7222ZM73.7456 15.1618C72.4001 15.1618 71.3135 16.1699 71.3135 17.8911C71.3135 19.6122 72.4001 20.65 73.7456 20.65C75.0911 20.65 76.1586 19.6398 76.1586 17.8911C76.1586 16.1423 75.089 15.1618 73.752 15.1618H73.7456Z" fill="#404041"/>
<path d="M83.0496 17.1589L85.4435 16.8024C85.9974 16.7238 86.1757 16.4458 86.1757 16.1105C86.1757 15.4186 85.6409 14.8371 84.5331 14.8371C83.387 14.8371 82.7525 15.5693 82.674 16.4204L80.3395 15.9259C80.4986 14.4021 81.9015 12.7212 84.514 12.7212C87.5998 12.7212 88.7458 14.4615 88.7458 16.4204V21.2082C88.7488 21.7247 88.7885 22.2403 88.8646 22.7511H86.4516C86.3845 22.3657 86.3518 21.9751 86.354 21.5839C85.8595 22.3542 84.9299 23.027 83.4847 23.027C81.407 23.027 80.1421 21.6221 80.1421 20.1004C80.1421 18.3665 81.4282 17.3966 83.0496 17.1589ZM86.1757 18.8207V18.3856L83.9792 18.7209C83.3064 18.8207 82.7737 19.1963 82.7737 19.9476C82.7737 20.5227 83.1982 21.0745 84.0471 21.0745C85.1464 21.0745 86.1757 20.5397 86.1757 18.8207Z" fill="#404041"/>
<path d="M92.9415 22.662C93.1198 23.7231 93.9687 24.502 95.2166 24.502C96.8783 24.502 97.8079 23.6722 97.8079 21.7918V21.0788C97.411 21.7154 96.5005 22.3267 95.0977 22.3267C92.5064 22.3267 90.5667 20.3275 90.5667 17.5982C90.5667 15.026 92.4258 12.8507 95.0977 12.8507C96.6406 12.8507 97.5298 13.5234 97.8673 14.175V13.0289H100.399V21.7133C100.399 24.3831 98.9539 26.8174 95.2951 26.8174C92.6253 26.8174 90.8383 25.1557 90.5667 23.2944L92.9415 22.662ZM97.8461 17.5982C97.8461 16.0956 96.8189 15.1449 95.5519 15.1449C94.2467 15.1449 93.2174 16.0956 93.2174 17.5982C93.2174 19.1008 94.1873 20.0707 95.5519 20.0707C96.9165 20.0707 97.8461 19.0965 97.8461 17.594V17.5982Z" fill="#404041"/>
<path d="M111.694 19.9688C111.2 21.6496 109.657 23.0546 107.263 23.0546C104.593 23.0546 102.239 21.1445 102.239 17.8508C102.239 14.7459 104.533 12.7276 107.025 12.7276C110.032 12.7276 111.834 14.6376 111.834 17.7722C111.834 18.1479 111.794 18.5426 111.794 18.5829H104.831C104.89 19.869 105.977 20.7986 107.284 20.7986C108.508 20.7986 109.183 20.1853 109.5 19.313L111.694 19.9688ZM109.241 16.7854C109.202 15.8155 108.568 14.8753 107.065 14.8753C106.527 14.8551 106.002 15.0419 105.597 15.3971C105.193 15.7524 104.94 16.2492 104.89 16.7854H109.241Z" fill="#404041"/>
<path d="M26.453 3.48364C25.6241 3.52987 24.8033 3.67207 24.0072 3.90739V19.9064C23.9874 23.6762 23.5197 24.8113 20.0398 25.527L7.77319 28.0146C7.87259 28.6315 8.07995 29.2261 8.38575 29.7711L21.412 27.0288C26.2817 25.8454 26.4618 24.5939 26.4815 20.2819L26.453 3.48364Z" fill="url(#paint0_linear_3281_58527)"/>
<path d="M30.7521 8.21953C30.7389 6.21718 29.7927 4.64297 28.3655 3.92282L25.9329 2.66916C27.349 3.39808 28.2953 4.97889 28.3063 6.98563L28.3216 21.2172C28.3019 25.1692 27.8079 27.086 23.2718 28.0103L10.5069 30.645C9.56691 30.8549 8.58327 30.7331 7.7229 30.3003L10.1578 31.5539C11.0141 31.9869 11.9941 32.1095 12.9308 31.9008L25.7199 29.2552C29.2525 28.4253 30.7697 26.2846 30.7697 21.9352L30.7521 8.21953Z" fill="#128CFF"/>
<path d="M3.4239 25.0001V17.7943L1.00879 19.8142V23.7662C1.00879 25.7751 2.00777 27.3647 3.4239 28.0936C3.4239 28.0936 5.2023 29.007 5.29891 29.0597C5.34721 29.0882 5.36917 29.0597 5.32745 29.018C4.20113 28.1859 3.43269 26.7566 3.4239 25.0001Z" fill="url(#paint1_linear_3281_58527)"/>
<path d="M21.6317 0.445001C20.7713 0.0121702 19.7877 -0.109621 18.8477 0.100299L6.08058 2.74156C3.25929 3.32557 0.986884 6.3774 1.00006 9.52363V16.1937L3.41517 14.1475V10.7597C3.41078 7.6135 5.69416 4.58143 8.51765 3.99522L21.2826 1.36055C21.971 1.21016 22.6857 1.23127 23.364 1.42202C23.4211 1.43739 23.4387 1.38031 23.3926 1.35616L21.6317 0.445001Z" fill="url(#paint2_linear_3281_58527)"/>
<path d="M16.1142 10.9903C13.4927 11.5326 11.3498 14.3648 11.3717 17.2871C11.3937 20.2094 13.541 22.1569 16.1625 21.6146C18.784 21.0723 20.9158 18.2378 20.9005 15.3177C20.8851 12.3976 18.7335 10.448 16.1142 10.9903Z" fill="#1C00C2"/>
<path d="M7.73809 27.2329V22.6618L5.29004 18.7844V25.9793C5.30102 27.986 6.2978 29.569 7.71613 30.2979L10.151 31.5516C8.73267 30.8227 7.74906 29.2419 7.73809 27.2329Z" fill="#1C00C2"/>
<path d="M23.1466 2.31549L10.3816 4.95016C7.55811 5.54076 5.27692 8.59259 5.2901 11.7388V14.694L7.73814 18.5736V12.9925C7.72497 9.85064 9.99298 6.79442 12.8165 6.21041L25.5814 3.57574C26.5217 3.36649 27.5053 3.48906 28.3654 3.92263L25.9327 2.66897C25.0728 2.23266 24.0882 2.10775 23.1466 2.31549Z" fill="#1C00C2"/>
<defs>
<linearGradient id="paint0_linear_3281_58527" x1="7.77319" y1="16.6263" x2="26.4815" y2="16.6263" gradientUnits="userSpaceOnUse">
<stop stop-color="#00DEBB"/>
<stop offset="1" stop-color="#00DEBB"/>
</linearGradient>
<linearGradient id="paint1_linear_3281_58527" x1="1.00001" y1="23.4259" x2="5.34062" y2="23.4259" gradientUnits="userSpaceOnUse">
<stop stop-color="#00DEBB"/>
<stop offset="1" stop-color="#00DEBB"/>
</linearGradient>
<linearGradient id="paint2_linear_3281_58527" x1="1.00006" y1="8.09872" x2="23.4189" y2="8.09872" gradientUnits="userSpaceOnUse">
<stop stop-color="#00DEBB"/>
<stop offset="1" stop-color="#00DEBB"/>
</linearGradient>
</defs>
</svg>