<svg width="32" height="32" viewBox="0 0 32 32" fill="none" xmlns="http://www.w3.org/2000/svg">
<path d="M29.0664 10.6692C29.0664 10.6692 28.8058 8.83157 28.0063 8.02234C26.9923 6.96022 25.8556 6.95496 25.3344 6.89279C21.6027 6.62305 16.0051 6.62305 16.0051 6.62305H15.9936C15.9936 6.62305 10.3961 6.62305 6.66432 6.89279C6.14304 6.95496 5.00681 6.96022 3.9924 8.02234C3.19288 8.83157 2.9327 10.6692 2.9327 10.6692C2.9327 10.6692 2.66602 12.8272 2.66602 14.9851V17.0082C2.66602 19.1662 2.9327 21.3241 2.9327 21.3241C2.9327 21.3241 3.19288 23.1618 3.99241 23.971C5.00682 25.0331 6.3393 24.9995 6.93278 25.1108C9.06617 25.3154 15.9994 25.3787 15.9994 25.3787C15.9994 25.3787 21.6028 25.3703 25.3344 25.1005C25.8556 25.0384 26.9923 25.0331 28.0063 23.971C28.8058 23.1618 29.0664 21.3241 29.0664 21.3241C29.0664 21.3241 29.3327 19.1662 29.3327 17.0082V14.9851C29.3327 12.8272 29.0664 10.6692 29.0664 10.6692Z" fill="#DC2217"/>
<path d="M13.2473 19.4614L13.2461 11.9688L20.4515 15.7281L13.2473 19.4614Z" fill="white"/>
</svg>
